<?xml version="1.0" encoding="UTF-8" standalone="no"?>
<!-- Created with Inkscape (http://www.inkscape.org/) -->

<svg
   xmlns:dc="http://purl.org/dc/elements/1.1/"
   xmlns:cc="http://creativecommons.org/ns#"
   xmlns:rdf="http://www.w3.org/1999/02/22-rdf-syntax-ns#"
   xmlns:svg="http://www.w3.org/2000/svg"
   xmlns="http://www.w3.org/2000/svg"
   xmlns:sodipodi="http://sodipodi.sourceforge.net/DTD/sodipodi-0.dtd"
   xmlns:inkscape="http://www.inkscape.org/namespaces/inkscape"
   width="210mm"
   height="297mm"
   viewBox="0 0 744.09448819 1052.3622047"
   id="svg2"
   version="1.1"
   inkscape:version="0.91 r13725"
   sodipodi:docname="WevQueryLogo.svg"
   inkscape:export-filename="C:\Users\Aitor\Dropbox (The University of Manchester)\UoM\MOVING\UserLogQAL\WevQueryLogo.png"
   inkscape:export-xdpi="90"
   inkscape:export-ydpi="90">
  <defs
     id="defs4" />
  <sodipodi:namedview
     id="base"
     pagecolor="#ffffff"
     bordercolor="#666666"
     borderopacity="1.0"
     inkscape:pageopacity="0.0"
     inkscape:pageshadow="2"
     inkscape:zoom="0.7"
     inkscape:cx="-141.49567"
     inkscape:cy="596.17923"
     inkscape:document-units="px"
     inkscape:current-layer="layer1"
     showgrid="false"
     inkscape:window-width="1536"
     inkscape:window-height="801"
     inkscape:window-x="-8"
     inkscape:window-y="-8"
     inkscape:window-maximized="1" />
  <metadata
     id="metadata7">
    <rdf:RDF>
      <cc:Work
         rdf:about="">
        <dc:format>image/svg+xml</dc:format>
        <dc:type
           rdf:resource="http://purl.org/dc/dcmitype/StillImage" />
        <dc:title />
      </cc:Work>
    </rdf:RDF>
  </metadata>
  <g
     inkscape:label="Layer 1"
     inkscape:groupmode="layer"
     id="layer1">
    <g
       id="g4189"
       transform="matrix(0.43403009,0,0,0.43403009,89.374898,74.7509)"
       inkscape:export-xdpi="90"
       inkscape:export-ydpi="90">
      <g
         id="g4137">
        <g
           id="g4139">
          <g
             id="g4141">
            <path
               id="path4143"
               d="M 544.374,355.976 C 537.628,313.9 501.317,282.95 458.702,282.95 c -42.618,0 -78.926,30.95 -85.674,73.026 l -22.311,139.061 c -1.034,6.451 0.812,13.039 5.051,18.019 4.241,4.965 10.447,7.836 16.991,7.836 l 171.883,0 c 6.542,0 12.75,-2.871 16.99,-7.836 4.239,-4.978 6.084,-11.566 5.052,-18.019 l -22.31,-139.061 z"
               inkscape:connector-curvature="0" />
            <circle
               id="circle4145"
               r="89.463997"
               cy="146.729"
               cx="409.79501" />
            <path
               id="path4147"
               d="m 127.169,351.681 c 5.684,15.432 20.28,24.983 35.814,24.983 4.388,0 8.841,-0.766 13.197,-2.366 19.784,-7.287 29.912,-29.234 22.617,-49.011 L 104.234,68.662 C 96.947,48.868 74.99,38.792 55.225,46.042 35.439,53.33 25.31,75.277 32.608,95.053 l 94.561,256.628 z"
               inkscape:connector-curvature="0" />
            <path
               id="path4149"
               d="m 174.157,466.019 -95.242,0 c -11.938,0 -21.659,-9.721 -21.659,-21.66 l 0,-209.758 c 0,-15.814 -12.815,-28.627 -28.629,-28.627 C 12.813,205.972 0,218.786 0,234.601 l 0,209.756 c 0,43.512 35.402,78.916 78.915,78.916 l 95.244,0 c 15.814,0 28.629,-12.816 28.629,-28.629 -0.002,-15.813 -12.817,-28.625 -28.631,-28.625 z"
               inkscape:connector-curvature="0" />
            <path
               id="path4151"
               d="m 270.826,478.196 c -20.522,0 -37.819,13.176 -44.229,31.508 -0.896,2.572 -0.496,5.414 1.079,7.644 1.575,2.217 4.137,3.539 6.858,3.539 l 72.579,0 c 2.722,0 5.275,-1.322 6.858,-3.539 1.574,-2.229 1.976,-5.07 1.081,-7.644 -6.408,-18.332 -23.705,-31.508 -44.226,-31.508 z"
               inkscape:connector-curvature="0" />
          </g>
        </g>
      </g>
      <g
         id="g4153" />
      <g
         id="g4155" />
      <g
         id="g4157" />
      <g
         id="g4159" />
      <g
         id="g4161" />
      <g
         id="g4163" />
      <g
         id="g4165" />
      <g
         id="g4167" />
      <g
         id="g4169" />
      <g
         id="g4171" />
      <g
         id="g4173" />
      <g
         id="g4175" />
      <g
         id="g4177" />
      <g
         id="g4179" />
      <g
         id="g4181" />
    </g>
    <g
       id="g4216"
       transform="matrix(0.97959184,0,0,0.97959184,-0.06122455,-9.1275957)"
       inkscape:export-xdpi="90"
       inkscape:export-ydpi="90">
      <path
         id="path4218"
         d="M 495,466.2 377.2,348.4 C 406.4,312.8 424,267.2 424,217.5 424,103.5 331.5,11 217.5,11 103.4,11 11,103.5 11,217.5 c 0,114 92.4,206.5 206.5,206.5 49.7,0 95.2,-17.5 130.8,-46.7 L 466.1,495 c 8,8 20.9,8 28.9,0 8,-7.9 8,-20.9 0,-28.8 z M 217.5,382.9 C 126.2,382.9 52,308.7 52,217.5 52,126.3 126.2,52 217.5,52 308.7,52 383,126.3 383,217.5 c 0,91.2 -74.3,165.4 -165.5,165.4 z"
         inkscape:connector-curvature="0" />
    </g>
    <flowRoot
       xml:space="preserve"
       id="flowRoot4228"
       style="font-style:normal;font-variant:normal;font-weight:600;font-stretch:normal;font-size:40.53841176px;line-height:125%;font-family:Dosis;-inkscape-font-specification:'Dosis, Semi-Bold';text-align:start;letter-spacing:0px;word-spacing:0px;writing-mode:lr;text-anchor:start;fill:#000000;fill-opacity:1;stroke:none;stroke-width:1px;stroke-linecap:butt;stroke-linejoin:miter;stroke-opacity:1;"
       transform="matrix(2.1845947,0,0,2.1845947,-32.118332,-519.77575)"
       inkscape:export-xdpi="90"
       inkscape:export-ydpi="90"><flowRegion
         id="flowRegion4230"><rect
           id="rect4232"
           width="454.28571"
           height="190"
           x="20"
           y="419.50507"
           style="font-style:normal;font-variant:normal;font-weight:600;font-stretch:normal;font-size:40.53841176px;line-height:125%;font-family:Dosis;-inkscape-font-specification:'Dosis, Semi-Bold';text-align:start;writing-mode:lr;text-anchor:start;" /></flowRegion><flowPara
         id="flowPara4234"
         style="font-style:normal;font-variant:normal;font-weight:600;font-stretch:normal;font-size:40.53841176px;line-height:125%;font-family:Dosis;-inkscape-font-specification:'Dosis, Semi-Bold';text-align:start;writing-mode:lr;text-anchor:start;">WEvQuery</flowPara></flowRoot>  </g>
</svg>
